# xmcd
#
# Track frame offsets:
#	150
#	42387
#	89106
#
# Disc length: 2254 seconds
#
# Revision: 1
# Processed by: cddbd v1.5.2PL0 Copyright (c) Steve Scherf et al.
# Submitted via: audiograbber 1.83.01
#
DISCID=2408cc03
DTITLE=Novalis - Sommerabend
DYEAR=1976
DGENRE=Krautrock
TTITLE0=Aufbruch
TTITLE1=Wunderschätze
TTITLE2=Wetterleuchten Am Strand - Der Traum - Ein Neuer Tag - Ins Licht
EXTD=
EXTT0=
EXTT1=
EXTT2=
PLAYORDER=
